<?xml version="1.0" standalone="no"?>
<!DOCTYPE svg PUBLIC "-//W3C//DTD SVG 20010904//EN"
 "http://www.w3.org/TR/2001/REC-SVG-20010904/DTD/svg10.dtd">
<svg version="1.0" xmlns="http://www.w3.org/2000/svg"
 width="512.000000pt" height="512.000000pt" viewBox="0 0 512.000000 512.000000"
 preserveAspectRatio="xMidYMid meet">
<metadata>
Created by potrace 1.11, written by Peter Selinger 2001-2013
</metadata>
<g transform="translate(0.000000,512.000000) scale(0.100000,-0.100000)"
fill="#000000" stroke="none">
<path d="M725 4672 c-77 -27 -138 -66 -189 -123 -25 -28 -46 -55 -46 -60 0 -5
-22 -9 -50 -9 -210 0 -391 -146 -430 -345 -8 -44 -10 -508 -8 -1720 l3 -1660
23 -55 c50 -118 145 -208 265 -250 57 -20 72 -20 2285 -18 l2227 3 68 33 c117
58 208 170 236 293 7 29 11 618 11 1694 0 1767 2 1694 -50 1794 -31 62 -110
142 -171 176 -106 57 -32 55 -1594 55 l-1441 0 -37 50 c-44 59 -120 112 -200
140 -53 19 -82 20 -454 20 -351 -1 -404 -3 -448 -18z m2080 -1067 c261 -54
468 -166 656 -354 172 -172 281 -361 341 -588 29 -110 31 -130 32 -298 1 -196
-10 -270 -64 -429 -175 -519 -660 -866 -1210 -866 -264 0 -492 69 -715 218
-275 183 -466 470 -541 812 -15 67 -19 124 -18 265 1 168 3 188 32 300 119
453 477 809 930 924 44 12 111 25 148 30 95 14 313 6 409 -14z m1895 -300 l0
-105 -325 0 -325 0 0 105 0 105 325 0 325 0 0 -105z"/>
<path d="M2460 3199 c-194 -22 -371 -111 -511 -256 -165 -170 -241 -357 -241
-593 0 -186 46 -334 150 -487 46 -67 150 -172 213 -216 71 -48 198 -105 284
-128 112 -29 298 -29 410 0 246 65 448 229 563 456 92 183 111 419 51 620 -81
269 -305 493 -574 574 -60 18 -228 43 -260 40 -5 -1 -44 -5 -85 -10z m-23
-224 c60 -27 107 -90 118 -155 10 -62 -17 -141 -64 -183 -138 -125 -351 -34
-351 150 0 66 17 108 63 151 67 64 149 77 234 37z"/>
</g>
</svg>
